# xmcd
#
# Track frame offsets:
#	150
#	24417
#	51527
#	75637
#	99201
#	120657
#	146169
#	168094
#	195240
#	215960
#	240121
#	261912
#
# Disc length: 3803 seconds
#
# Revision: 1
# Processed by: cddbd v1.5.2PL0 Copyright (c) Steve Scherf et al.
# Submitted via: EZCDAudioConverter 8.0.2.1
#
DISCID=9d0ed90c
DTITLE=Quang Lê - Xin Gọi Nhau Là Cố Nhân
DYEAR=2004
DGENRE=Miscellaneous
TTITLE0=Quang Lê - Cầu tre kỷ niệm
TTITLE1=Quang Lê - Mưa đêm tỉnh nhỏ
TTITLE2=Quang Lê - Đêm cuối
TTITLE3=Quang Lê - Để trả lời một câu hỏi
TTITLE4=Quang Lê - Cô hàng xóm
TTITLE5=Quang Lê - Nước trôi qua ghềnh
TTITLE6=Quang Lê, Ngọc Hạ - Ai ra xứ Huế
TTITLE7=Quang Lê - Nắng đẹp miền Nam
TTITLE8=Quang Lê - Xin Gọi Nhau Là Cố Nhân
TTITLE9=Quang Lê - Kẻ đi rong
TTITLE10=Quang Lê - Nhớ về em
TTITLE11=Quang Lê - Nén hương yêu
EXTD=
EXTT0=
EXTT1=
EXTT2=
EXTT3=
EXTT4=
EXTT5=
EXTT6=
EXTT7=
EXTT8=
EXTT9=
EXTT10=
EXTT11=
PLAYORDER=
